# xmcd
#
# Track frame offsets:
#	150
#	13572
#	27605
#	41180
#	54372
#	67345
#	79880
#	91650
#	107085
#	119857
#	133097
#	145767
#	159350
#	173192
#	184570
#	196862
#	211662
#	225880
#	239660
#	251817
#	262662
#	276697
#	289095
#	302690
#
# Disc length: 4206 seconds
#
# Revision: 2
# Processed by: cddbd v1.5.2PL0 Copyright (c) Steve Scherf et al.
# Submitted via: audiograbber 1.83.01
#
DISCID=5c106c18
DTITLE=Benny Moré - Y Su Banda Gigante 4 (1957)
DYEAR=1957
DGENRE=Latin
TTITLE0=Manigua (son)
TTITLE1=Vano Capricho (bolero)
TTITLE2=Dolor Y Pena (plena)
TTITLE3=Vagar Entre Sombras (bolero)
TTITLE4=Soy Del Monte (son)
TTITLE5=Por Una Madre (bolero)
TTITLE6=Mulata Con Cola (son)
TTITLE7=No Te Atrevas (bolero)
TTITLE8=Cómo Está Mi Conuco (son)
TTITLE9=Rezo En La Noche (bolero)
TTITLE10=El Conde Negro (guaracha)
TTITLE11=Perdí La Fe (bolero)
TTITLE12=Se Te Cayó El Tabaco (guaracha)
TTITLE13=Caricias Cubanas (son)
TTITLE14=Cuando Quieras Volver (bolero)
TTITLE15=Qué Bueno Baila Usted (son)
TTITLE16=Corazón Rebelde (bolero)
TTITLE17=Elige Tú, Que Canto Yo (guaracha)
TTITLE18=Dolor Y Perdón (bolero)
TTITLE19=Francisco Guayabal (son)
TTITLE20=No Puedo Callar (bolero)
TTITLE21=El Agarra'o (son)
TTITLE22=Trátame Como Soy (guaracha)
TTITLE23=No Hay Tierra Como La Mía (son)
EXTD=
EXTT0=
EXTT1=
EXTT2=
EXTT3=
EXTT4=
EXTT5=
EXTT6=
EXTT7=
EXTT8=
EXTT9=
EXTT10=
EXTT11=
EXTT12=
EXTT13=
EXTT14=
EXTT15=
EXTT16=
EXTT17=
EXTT18=
EXTT19=
EXTT20=
EXTT21=
EXTT22=
EXTT23=
PLAYORDER=
